<svg width="50" height="50" viewBox="0 0 50 50" fill="none" xmlns="http://www.w3.org/2000/svg">
<path d="M20.3125 46.875C15.7541 46.875 11.3824 45.0642 8.1591 41.8409C4.93582 38.6176 3.125 34.2459 3.125 29.6875C3.125 25.1291 4.93582 20.7574 8.1591 17.5341C11.3824 14.3108 15.7541 12.5 20.3125 12.5C20.7269 12.5 21.1243 12.6646 21.4174 12.9576C21.7104 13.2507 21.875 13.6481 21.875 14.0625V28.125H35.9375C36.3519 28.125 36.7493 28.2896 37.0424 28.5826C37.3354 28.8757 37.5 29.2731 37.5 29.6875C37.5 34.2459 35.6892 38.6176 32.4659 41.8409C29.2426 45.0642 24.8709 46.875 20.3125 46.875ZM18.75 15.7188C16.1175 16.0116 13.6213 17.042 11.5487 18.6913C9.47609 20.3406 7.91144 22.5417 7.03487 25.0412C6.15831 27.5407 6.00548 30.2369 6.59397 32.8194C7.18247 35.402 8.48836 37.7658 10.3613 39.6387C12.2342 41.5116 14.598 42.8175 17.1806 43.406C19.7631 43.9945 22.4593 43.8417 24.9588 42.9651C27.4583 42.0886 29.6594 40.5239 31.3087 38.4513C32.958 36.3787 33.9884 33.8825 34.2813 31.25H21.875C21.0462 31.25 20.2513 30.9208 19.6653 30.3347C19.0792 29.7487 18.75 28.9538 18.75 28.125V15.7188Z" fill="white"/>
<path d="M43.75 21.875H29.6875C28.8587 21.875 28.0638 21.5458 27.4778 20.9597C26.8917 20.3737 26.5625 19.5788 26.5625 18.75V4.6875C26.5625 4.2731 26.7271 3.87567 27.0201 3.58265C27.3132 3.28962 27.7106 3.125 28.125 3.125C32.6834 3.125 37.0551 4.93582 40.2784 8.1591C43.5017 11.3824 45.3125 15.7541 45.3125 20.3125C45.3125 20.7269 45.1479 21.1243 44.8549 21.4174C44.5618 21.7104 44.1644 21.875 43.75 21.875ZM29.6875 18.75H42.0938C41.7382 15.5821 40.3168 12.6289 38.0627 10.3748C35.8086 8.12068 32.8554 6.69931 29.6875 6.34375V18.75Z" fill="white"/>
</svg>
