<svg width="144" height="29" viewBox="0 0 144 29" fill="none" xmlns="http://www.w3.org/2000/svg">
<path d="M30.312 4.90155H18.402V28.6029H11.91V4.90155H0V0H30.312V4.90155ZM51.066 12.7839C53.544 16.3536 53.022 20.4669 53.022 20.4669H31.86C32.664 22.2381 34.626 23.7195 38.952 23.7195H51.984V28.6256H38.952C32.784 28.6256 29.43 26.5825 27.708 24.8701C25.884 23.0626 24.882 20.63 24.882 18.0161C24.882 12.7386 29.718 7.39308 38.952 7.39308C44.334 7.38855 48.648 9.30025 51.066 12.7839V12.7839ZM45.696 15.7692C44.784 14.1837 42.882 12.2946 38.952 12.2946C34.512 12.2946 32.676 14.1565 31.914 15.7692H45.696ZM75.522 15.5427H65.34C64.7926 15.5427 64.2676 15.3785 63.8805 15.0863C63.4935 14.794 63.276 14.3976 63.276 13.9843C63.2834 13.5093 63.5377 13.0554 63.984 12.7205C64.3363 12.4431 64.8192 12.282 65.328 12.272H80.148V7.37044H65.508C62.934 7.37044 61.008 8.03636 59.4 9.25042C57.7347 10.5059 56.7943 12.2075 56.784 13.9843C56.784 17.5495 60.624 20.4488 65.346 20.4488H75.528C76.8 20.4488 77.832 21.2189 77.832 22.1611C77.832 23.0218 76.89 23.7195 75.732 23.7195H58.314V28.6256H75.726C80.466 28.6256 84.324 25.7263 84.324 22.1657C84.324 18.5144 80.376 15.5427 75.522 15.5427V15.5427ZM98.556 0.0181233H92.058V7.37496H84.498V12.281H92.058V19.2256C92.058 24.1453 98.766 28.6256 106.128 28.6256V23.7195C102.048 23.7195 98.55 21.2461 98.55 19.2256V12.281H106.14V7.37496H98.55V0.0181233H98.556ZM110.442 28.6029H116.94V7.35231H110.442V28.6029ZM113.694 0.0135914C112.834 0.0135914 112.009 0.271559 111.401 0.730743C110.793 1.18993 110.451 1.81271 110.451 2.4621C110.451 3.11148 110.793 3.73427 111.401 4.19345C112.009 4.65264 112.834 4.91061 113.694 4.91061C114.554 4.91061 115.379 4.65264 115.987 4.19345C116.595 3.73427 116.937 3.11148 116.937 2.4621C116.937 1.81271 116.595 1.18993 115.987 0.730743C115.379 0.271559 114.554 0.0135914 113.694 0.0135914ZM132.366 7.33873C126.246 7.33873 121.272 11.076 121.272 15.665V28.6029H127.77V15.665C127.77 13.776 129.834 12.2448 132.372 12.2448C135.012 12.2448 137.514 13.9073 137.514 15.665V28.6029H144V15.665C144 11.153 138.672 7.33873 132.366 7.33873Z" fill="#CBCBCB"/>
</svg>
