<svg width="43" height="43" viewBox="0 0 43 43" fill="none" xmlns="http://www.w3.org/2000/svg">
<path d="M43 22.038C43 26.8411 41.6326 31.1605 38.8978 34.9961C36.1651 38.8317 32.6327 41.4848 28.3026 42.9575C27.7995 43.0543 27.4297 42.9876 27.1975 42.7576C27.0829 42.6461 26.9927 42.5122 26.9324 42.3642C26.8721 42.2162 26.843 42.0573 26.8471 41.8976V35.841C26.8471 33.9856 26.3612 32.6268 25.3915 31.7668C26.3602 31.6696 27.3199 31.497 28.2618 31.2508C29.1089 31.0207 29.9861 30.6488 30.8912 30.1328C31.7614 29.6459 32.5312 28.998 33.1595 28.2236C33.7658 27.4668 34.2603 26.4627 34.643 25.2093C35.0257 23.9558 35.217 22.5175 35.217 20.8921C35.217 18.5765 34.4796 16.605 33.0068 14.9796C33.6948 13.2381 33.6217 11.288 32.7811 9.12513C32.2586 8.95313 31.504 9.06063 30.515 9.44118C29.6178 9.77818 28.7553 10.2008 27.9393 10.7032L26.875 11.3912C25.127 10.8929 23.3177 10.6425 21.5 10.6473C19.6822 10.6432 17.8729 10.8943 16.125 11.3934C15.7362 11.1241 15.3397 10.866 14.9361 10.6194C14.4416 10.3119 13.6611 9.94428 12.5969 9.51428C11.5348 9.08428 10.7307 8.95528 10.1889 9.12728C9.3697 11.288 9.30305 13.2381 9.99535 14.9796C8.52045 16.605 7.78085 18.5765 7.78085 20.8921C7.78085 22.5175 7.97435 23.9515 8.35705 25.1964C8.73975 26.4391 9.22995 27.4431 9.8255 28.2085C10.4431 28.991 11.2087 29.6441 12.0787 30.1306C12.9839 30.6466 13.8632 31.0207 14.7103 31.2486C15.5596 31.4808 16.5163 31.6528 17.5806 31.7668C16.8345 32.4548 16.3766 33.4416 16.2089 34.723C15.808 34.9172 15.3849 35.0616 14.949 35.153C14.4236 35.2561 13.889 35.3044 13.3537 35.2971C12.7366 35.2971 12.1282 35.0907 11.5197 34.68C10.9134 34.2672 10.3953 33.6695 9.96525 32.8869C9.62935 32.2951 9.16593 31.7854 8.6086 31.3948C8.0582 31.0121 7.59595 30.7821 7.22185 30.7068L6.66285 30.6208C6.27155 30.6208 6.00065 30.6638 5.85015 30.7498C5.69965 30.8358 5.65665 30.9433 5.7104 31.0788C5.77363 31.2246 5.85843 31.3602 5.96195 31.4808C6.06935 31.6099 6.19209 31.7254 6.32745 31.8248L6.52095 31.9667C6.93375 32.1602 7.33795 32.5236 7.74 33.0589C8.14205 33.5943 8.4366 34.0823 8.6215 34.5209L8.901 35.181C9.14395 35.9077 9.5546 36.4968 10.1351 36.9461C10.7135 37.3976 11.3391 37.6836 12.0099 37.8061C12.6807 37.9308 13.33 37.9996 13.9557 38.0082C14.5792 38.0168 15.0995 37.9846 15.5101 37.9072L16.153 37.7932C16.153 38.5199 16.1573 39.3713 16.168 40.3474L16.1809 41.8954C16.1809 42.2394 16.0605 42.5275 15.8154 42.7554C15.5746 42.9876 15.2005 43.0543 14.6974 42.9575C10.3673 41.4848 6.83485 38.8295 4.1022 34.9961C1.3674 31.1605 0 26.8411 0 22.038C0 18.039 0.96105 14.3539 2.88315 10.9763C4.74394 7.66347 7.44276 4.89791 10.7092 2.95678C13.9653 0.996653 17.6995 -0.0263524 21.5 0.000531689C25.3013 -0.0267489 29.0362 0.996271 32.293 2.95678C35.5586 4.89821 38.2567 7.66374 40.1169 10.9763C42.039 14.3518 43 18.0412 43 22.038Z" fill="#CBCBCB"/>
</svg>
