<svg width="172" height="35" viewBox="0 0 172 35" fill="none" xmlns="http://www.w3.org/2000/svg">
<path d="M36.206 5.99304H21.9802V34.9723H14.2258V5.99304H0V0H36.206V5.99304ZM60.9955 15.6306C63.9553 19.9953 63.3318 25.0245 63.3318 25.0245H38.055C39.0153 27.1902 41.3588 29.0014 46.526 29.0014H62.092V35H46.526C39.1587 35 35.1525 32.502 33.0957 30.4083C30.917 28.1983 29.7202 25.2239 29.7202 22.028C29.7202 15.5753 35.4965 9.0394 46.526 9.0394C52.9545 9.03387 58.1073 11.3713 60.9955 15.6306V15.6306ZM54.5813 19.2807C53.492 17.3421 51.2202 15.0324 46.526 15.0324C41.2227 15.0324 39.0297 17.3089 38.1195 19.2807H54.5813ZM90.2068 19.0038H78.045C77.3912 19.0038 76.7641 18.8031 76.3017 18.4457C75.8394 18.0884 75.5797 17.6038 75.5797 17.0984C75.5885 16.5176 75.8922 15.9626 76.4253 15.5531C76.8461 15.214 77.423 15.017 78.0307 15.0048H95.7323V9.01171H78.2457C75.1712 9.01171 72.8707 9.82593 70.95 11.3103C68.9609 12.8454 67.8377 14.926 67.8253 17.0984C67.8253 21.4575 72.412 25.0024 78.0522 25.0024H90.214C91.7333 25.0024 92.966 25.944 92.966 27.0961C92.966 28.1484 91.8408 29.0014 90.4577 29.0014H69.6528V35H90.4505C96.1122 35 100.72 31.4551 100.72 27.1016C100.72 22.6373 96.0047 19.0038 90.2068 19.0038V19.0038ZM117.72 0.0221591H109.958V9.01725H100.928V15.0158H109.958V23.5069C109.958 29.5221 117.97 35 126.764 35V29.0014C121.891 29.0014 117.712 25.9772 117.712 23.5069V15.0158H126.778V9.01725H117.712V0.0221591H117.72ZM131.917 34.9723H139.678V8.98956H131.917V34.9723ZM135.801 0.016618C134.774 0.016618 133.789 0.332031 133.062 0.893468C132.336 1.4549 131.928 2.21637 131.928 3.01037C131.928 3.80436 132.336 4.56583 133.062 5.12727C133.789 5.6887 134.774 6.00412 135.801 6.00412C136.829 6.00412 137.814 5.6887 138.54 5.12727C139.267 4.56583 139.675 3.80436 139.675 3.01037C139.675 2.21637 139.267 1.4549 138.54 0.893468C137.814 0.332031 136.829 0.016618 135.801 0.016618ZM158.104 8.97294C150.794 8.97294 144.853 13.5425 144.853 19.1533V34.9723H152.614V19.1533C152.614 16.8436 155.079 14.9715 158.111 14.9715C161.264 14.9715 164.253 17.0043 164.253 19.1533V34.9723H172V19.1533C172 13.6367 165.636 8.97294 158.104 8.97294Z" fill="black"/>
</svg>
